/* XPM */
static char *_1154_c0ae94ef80a2a1aa0aa9c5ad66b8a20590af554a32ef2918cc3ccafdc5d56e59[] = {
/* columns rows colors chars-per-pixel */
"70 70 27 1 ",
"  c #FF51FD",
". c #FD52FD",
"X c #F955FD",
"o c #FB54FD",
"O c #F15BFC",
"+ c #F25AFC",
"@ c #F35AFC",
"# c #DF69F9",
"$ c #D96FF8",
"% c #CC7DF5",
"& c #D672F8",
"* c #E167FA",
"= c #E068F9",
"- c #B9B3CB",
"; c #B9B4C8",
": c #BAB4C8",
"> c #BAB4C9",
", c #B9B1CC",
"< c #B9B2CC",
"1 c #B8A4DE",
"2 c #B8A5DE",
"3 c #BF90ED",
"4 c #C08EEE",
"5 c #C18EEE",
"6 c #C28AF0",
"7 c #C28BF0",
"8 c None",
/* pixels */
"8888888888888888888888888888888888888888888888888888888888888888888888",
"8888888888888888888888888888888888888888888888888888888888888888888888",
"8888888888888888888888888888888888888888888888888888888888888888888888",
"8888888888888888888888888888888888888888888888888888888888888888888888",
"8888888888888888888888888888888888888888888888888888888888888888888888",
"8888888888888888888888888888888888888888888888888888888888888888888888",
"8888888888888888888888888888888888888888888888888888888888888888888888",
"8888888888888888888888888888888888888888888888888888888888888888888888",
"8888888888888888888888888888888888888888888888888888888888888888888888",
"8888888888888888888888888888888888888888888888888888888888888888888888",
"8888888888888888888888888888888888888888888888888888888888888888888888",
"8888888888888888888888888888888888888888888888888888888888888888888888",
"8888888888888888888888888888888888888888888888888888888888888888888888",
"8888888888888888888888888888888888888888888888888888888888888888888888",
"8888888888888888888888888888888888888888888888888888888888888888888888",
"8888888888888888888888888888888888888888888888888888888888888888888888",
"8888888888888888888888888888888888888888888888888888888888888888888888",
"8888888888888888888888888888888888888888888888888888888888888888888888",
"8888888888888888888888888888888888888888888888888888888888888888888888",
"8888888888888888888888888888888888888888888888888888888888888888888888",
"8888888888888888888888888888888888888888888888888888888888888888888888",
"8888888888888888888888888888888888888888888888888888888888888888888888",
"888888888888888888888888888888888,11,888888888888888888888888888888888",
"88888888888888888888888888888>5$o    o$5>88888888888888888888888888888",
"88888888888888888888888888886.          .68888888888888888888888888888",
"88888888888888888888888888:*              =:88888888888888888888888888",
"8888888888888888888888888:+                O88888888888888888888888888",
"8888888888888888888888888*                  %8888888888888888888888888",
"8888888888888888888888886                    2888888888888888888888888",
"88888888888888888888888>.                    @888888888888888888888888",
"888888888888888888888885                      388888888888888888888888",
"88888888888888888888888$                      &88888888888888888888888",
"88888888888888888888888o                      X88888888888888888888888",
"8888888888888888888888,                        -8888888888888888888888",
"88888888888888888888881                        28888888888888888888888",
"88888888888888888888881                        28888888888888888888888",
"8888888888888888888888,                        -8888888888888888888888",
"88888888888888888888888o                      X88888888888888888888888",
"88888888888888888888888$                      &88888888888888888888888",
"888888888888888888888885                      388888888888888888888888",
"88888888888888888888888>.                    @888888888888888888888888",
"8888888888888888888888886                    2888888888888888888888888",
"8888888888888888888888888=                  %8888888888888888888888888",
"8888888888888888888888888:+                O88888888888888888888888888",
"88888888888888888888888888;=              #;88888888888888888888888888",
"88888888888888888888888888887.          .78888888888888888888888888888",
"88888888888888888888888888888>5$o    o$4>88888888888888888888888888888",
"888888888888888888888888888888888<11<888888888888888888888888888888888",
"8888888888888888888888888888888888888888888888888888888888888888888888",
"8888888888888888888888888888888888888888888888888888888888888888888888",
"8888888888888888888888888888888888888888888888888888888888888888888888",
"8888888888888888888888888888888888888888888888888888888888888888888888",
"8888888888888888888888888888888888888888888888888888888888888888888888",
"8888888888888888888888888888888888888888888888888888888888888888888888",
"8888888888888888888888888888888888888888888888888888888888888888888888",
"8888888888888888888888888888888888888888888888888888888888888888888888",
"8888888888888888888888888888888888888888888888888888888888888888888888",
"8888888888888888888888888888888888888888888888888888888888888888888888",
"8888888888888888888888888888888888888888888888888888888888888888888888",
"8888888888888888888888888888888888888888888888888888888888888888888888",
"8888888888888888888888888888888888888888888888888888888888888888888888",
"8888888888888888888888888888888888888888888888888888888888888888888888",
"8888888888888888888888888888888888888888888888888888888888888888888888",
"8888888888888888888888888888888888888888888888888888888888888888888888",
"8888888888888888888888888888888888888888888888888888888888888888888888",
"8888888888888888888888888888888888888888888888888888888888888888888888",
"8888888888888888888888888888888888888888888888888888888888888888888888",
"8888888888888888888888888888888888888888888888888888888888888888888888",
"8888888888888888888888888888888888888888888888888888888888888888888888",
"8888888888888888888888888888888888888888888888888888888888888888888888"
};
