/* XPM */
static char *_7109_70c23351290e9b8b1a140bd0f12238f81d217b1b50fe50fa0165ed720c99a7a1[] = {
/* columns rows colors chars-per-pixel */
"70 70 92 1 ",
"  c black",
". c #010001",
"X c #020102",
"o c #030103",
"O c #040104",
"+ c #090309",
"@ c #0C040C",
"# c #0F050F",
"$ c #100510",
"% c #110511",
"& c #120612",
"* c #140714",
"= c #150715",
"- c #190819",
"; c #1A091A",
": c #1F0A1F",
"> c #200A20",
", c #220C22",
"< c #240D25",
"1 c #250D26",
"2 c #260D27",
"3 c #280D28",
"4 c #280E29",
"5 c #290F2A",
"6 c #2E112F",
"7 c #300F30",
"8 c #2E1130",
"9 c #311031",
"0 c #331436",
"q c #38183C",
"w c #38183D",
"e c #40143F",
"r c #3B1A40",
"t c #3B1B41",
"y c #3E1E46",
"u c #411540",
"i c #4A1849",
"p c #551B54",
"a c #561B55",
"s c #41224B",
"d c #43254E",
"f c #43254F",
"g c #452952",
"h c #472D56",
"j c #472E56",
"k c #49325A",
"l c #49335A",
"z c #4A375C",
"x c #4B375D",
"c c #4D3C5F",
"v c #4D3D60",
"b c #672166",
"n c #682167",
"m c #722471",
"M c #732572",
"N c #504263",
"B c #504363",
"V c #544966",
"C c #554A66",
"Z c #574E68",
"A c #5B556B",
"S c #5F5B6D",
"D c #656170",
"F c #676470",
"G c #686572",
"H c #6C6873",
"J c #6D6A72",
"K c #6D6B73",
"L c #706D73",
"P c #8F2D8E",
"I c #902E8F",
"U c #9A3199",
"Y c #9B319A",
"T c #AC37AB",
"R c #AD37AC",
"E c #B63AB5",
"W c #B73AB6",
"Q c #C13DBF",
"! c #C23EC0",
"~ c #D042CE",
"^ c #D142CF",
"/ c #D644D4",
"( c #D845D6",
") c #D945D7",
"_ c #EA4AE8",
"` c #EF4CED",
"' c #F04CEE",
"] c #FA4FF8",
"[ c #FC50FA",
"{ c #FE51FC",
"} c #FF51FD",
"| c None",
/* pixels */
"||||||||||||||||||||||||||||||||||||||||||||||||||||||||||||||||||||||",
"||||||||||||||||||||||||||||||||||||||||||||||||||||||||||||||||||||||",
"||||||||||||||||||||||||||||||||||||||||||||||||||||||||||||||||||||||",
"||||||||||||||||||||||||||||||||||||||||||||||||||||||||||||||||||||||",
"||||||||||||||||||||||||||||||||||||||||||||||||||||||||||||||||||||||",
"||||||||||||||||||||||||||||||||||||||||||||||||||||||||||||||||||||||",
"||||||||||||||||||||||||||||||||||||||||||||||||||||||||||||||||||||||",
"||||||||||||||||||||||||||||||||||||||||||||||||||||||||||||||||||||||",
"||||||||||||||||||||||||||||||||||||||||||||||||||||||||||||||||||||||",
"||||||||||||||||||||||||||||||||||||||||||||||||||||||||||||||||||||||",
"||||||||||||||||||||||||||||||||||||||||||||||||||||||||||||||||||||||",
"||||||||||||||||||||||||||||||||||||||||||||||||||||||||||||||||||||||",
"||||||||||||||||||||||||||||||||||||||||||||||||||||||||||||||||||||||",
"||||||||||||||||||||||||||||||||||||||||||||||||||||||||||||||||||||||",
"||||||||||||||||||||||||||||||||||||||||||||||||||||||||||||||||||||||",
"||||||||||||||||||||||||||||||||||||||||||||||||||||||||||||||||||||||",
"||||||||||||||||||||||||||||||||||||||||||||||||||||||||||||||||||||||",
"||||||||||||||||||||||||||||||||||DD||||||||||||||||||||||||||||||||||",
"||||||||||||||||||||||||||||||||||qw||||||||||||||||||||||||||||||||||",
"|||||||||||||||||||||||||||||||||V  C|||||||||||||||||||||||||||||||||",
"|||||||||||||||||||||||||||||||||<  1|||||||||||||||||||||||||||||||||",
"||||||||||||||||||||||||||||||||k    l||||||||||||||||||||||||||||||||",
"|||||||||||||||||||||||||||||||L%    &L|||||||||||||||||||||||||||||||",
"|||||||||||||||||||||||||||||||s  >>  s|||||||||||||||||||||||||||||||",
"||||||||||||||||||||||||||||||So  RT  oS||||||||||||||||||||||||||||||",
"||||||||||||||||||||||||||||||0  u{{e  0||||||||||||||||||||||||||||||",
"|||||||||||||||||||||||||||||N  X^}}~X  B|||||||||||||||||||||||||||||",
"|||||||||||||||||||||||||||||:  n}}}}b  :|||||||||||||||||||||||||||||",
"||||||||||||||||||||||||||||h  $_}}}}_#  j||||||||||||||||||||||||||||",
"|||||||||||||||||||||||||||H@  I}}}}}}P  @H|||||||||||||||||||||||||||",
"|||||||||||||||||||||||||||y  3]}}}}}}]3  y|||||||||||||||||||||||||||",
"||||||||||||||||||||||||||A.  W}}}}}}}}E  .A||||||||||||||||||||||||||",
"||||||||||||||||||||||||||6  i}}}}}}}}}}i  8||||||||||||||||||||||||||",
"|||||||||||||||||||||||||c  O)}}}}}}}}}}(O  v|||||||||||||||||||||||||",
"|||||||||||||||||||||||||-  M}}}}}}}}}}}}m  ;|||||||||||||||||||||||||",
"||||||||||||||||||||||||g  ='}}}}}}}}}}}}`=  g||||||||||||||||||||||||",
"|||||||||||||||||||||||F+  Y}}}}}}}}}}}}}}U  +G|||||||||||||||||||||||",
"|||||||||||||||||||||||r  9[}}}}}}}}}}}}}}[7  t|||||||||||||||||||||||",
"||||||||||||||||||||||Z   !}}}}}}}}}}}}}}}}Q   Z||||||||||||||||||||||",
"||||||||||||||||||||||4  a}}}}}}}}}}}}}}}}}}p  5||||||||||||||||||||||",
"|||||||||||||||||||||z  .W//////////////////W.  x|||||||||||||||||||||",
"|||||||||||||||||||||*                          =|||||||||||||||||||||",
"||||||||||||||||||||d                            f||||||||||||||||||||",
"|||||||||||||||||||J2,,,,,,,,,,,,,,,,,,,,,,,,,,,,2K|||||||||||||||||||",
"||||||||||||||||||||||||||||||||||||||||||||||||||||||||||||||||||||||",
"||||||||||||||||||||||||||||||||||||||||||||||||||||||||||||||||||||||",
"||||||||||||||||||||||||||||||||||||||||||||||||||||||||||||||||||||||",
"||||||||||||||||||||||||||||||||||||||||||||||||||||||||||||||||||||||",
"||||||||||||||||||||||||||||||||||||||||||||||||||||||||||||||||||||||",
"||||||||||||||||||||||||||||||||||||||||||||||||||||||||||||||||||||||",
"||||||||||||||||||||||||||||||||||||||||||||||||||||||||||||||||||||||",
"||||||||||||||||||||||||||||||||||||||||||||||||||||||||||||||||||||||",
"||||||||||||||||||||||||||||||||||||||||||||||||||||||||||||||||||||||",
"||||||||||||||||||||||||||||||||||||||||||||||||||||||||||||||||||||||",
"||||||||||||||||||||||||||||||||||||||||||||||||||||||||||||||||||||||",
"||||||||||||||||||||||||||||||||||||||||||||||||||||||||||||||||||||||",
"||||||||||||||||||||||||||||||||||||||||||||||||||||||||||||||||||||||",
"||||||||||||||||||||||||||||||||||||||||||||||||||||||||||||||||||||||",
"||||||||||||||||||||||||||||||||||||||||||||||||||||||||||||||||||||||",
"||||||||||||||||||||||||||||||||||||||||||||||||||||||||||||||||||||||",
"||||||||||||||||||||||||||||||||||||||||||||||||||||||||||||||||||||||",
"||||||||||||||||||||||||||||||||||||||||||||||||||||||||||||||||||||||",
"||||||||||||||||||||||||||||||||||||||||||||||||||||||||||||||||||||||",
"||||||||||||||||||||||||||||||||||||||||||||||||||||||||||||||||||||||",
"||||||||||||||||||||||||||||||||||||||||||||||||||||||||||||||||||||||",
"||||||||||||||||||||||||||||||||||||||||||||||||||||||||||||||||||||||",
"||||||||||||||||||||||||||||||||||||||||||||||||||||||||||||||||||||||",
"||||||||||||||||||||||||||||||||||||||||||||||||||||||||||||||||||||||",
"||||||||||||||||||||||||||||||||||||||||||||||||||||||||||||||||||||||",
"||||||||||||||||||||||||||||||||||||||||||||||||||||||||||||||||||||||"
};
