/* XPM */
static char *_727_36f66fe4454d87798caba2e4d955e781cbaa793ca9ba82390ba2cc7daa24ff48[] = {
/* columns rows colors chars-per-pixel */
"70 70 4 1 ",
"  c #00FFE9",
". c #0DFEE9",
"X c #93E6B4",
"o c None",
/* pixels */
"oooooooooooooooooooooooooooooooooooooooooooooooooooooooooooooooooooooo",
"oooooooooooooooooooooooooooooooooooooooooooooooooooooooooooooooooooooo",
"oooooooooooooooooooooooooooooooooooooooooooooooooooooooooooooooooooooo",
"oooooooooooooooooooooooooooooooooooooooooooooooooooooooooooooooooooooo",
"oooooooooooooooooooooooooooooooooooooooooooooooooooooooooooooooooooooo",
"oooooooooooooooooooooooooooooooooooooooooooooooooooooooooooooooooooooo",
"oooooooooooooooooooooooooooooooooooooooooooooooooooooooooooooooooooooo",
"oooooooooooooooooooooooooooooooooooooooooooooooooooooooooooooooooooooo",
"oooooooooooooooooooooooooooooooooooooooooooooooooooooooooooooooooooooo",
"oooooooooooooooooooooooooooooooooooooooooooooooooooooooooooooooooooooo",
"oooooooooooooooooooooooooooooooooooooooooooooooooooooooooooooooooooooo",
"oooooooooooooooooooooooooooooooooooooooooooooooooooooooooooooooooooooo",
"oooooooooooooooooooooooooooooooooooooooooooooooooooooooooooooooooooooo",
"oooooooooooooooooooooooooooooooooooooooooooooooooooooooooooooooooooooo",
"oooooooooooooooooooooooooooooooooooooooooooooooooooooooooooooooooooooo",
"oooooooooooooooooooooooooooooooooooooooooooooooooooooooooooooooooooooo",
"oooooooooooooooooooooooooooooooooooooooooooooooooooooooooooooooooooooo",
"ooooooooooooooooooooooooooooooooooXXoooooooooooooooooooooooooooooooooo",
"oooooooooooooooooooooooooooooooooX..Xooooooooooooooooooooooooooooooooo",
"ooooooooooooooooooooooooooooooooX.  .Xoooooooooooooooooooooooooooooooo",
"oooooooooooooooooooooooooooooooX.    .Xooooooooooooooooooooooooooooooo",
"ooooooooooooooooooooooooooooooX.      .Xoooooooooooooooooooooooooooooo",
"oooooooooooooooooooooooooooooX.        .Xooooooooooooooooooooooooooooo",
"ooooooooooooooooooooooooooooX.          .Xoooooooooooooooooooooooooooo",
"oooooooooooooooooooooooooooX.            .Xooooooooooooooooooooooooooo",
"ooooooooooooooooooooooooooX.              .Xoooooooooooooooooooooooooo",
"oooooooooooooooooooooooooX.                .Xooooooooooooooooooooooooo",
"ooooooooooooooooooooooooX.                  .Xoooooooooooooooooooooooo",
"oooooooooooooooooooooooX.                    .Xooooooooooooooooooooooo",
"ooooooooooooooooooooooX.                      .Xoooooooooooooooooooooo",
"oooooooooooooooooooooX.                        .Xooooooooooooooooooooo",
"ooooooooooooooooooooX.                          .Xoooooooooooooooooooo",
"oooooooooooooooooooX.                            .Xooooooooooooooooooo",
"ooooooooooooooooooX.                              .Xoooooooooooooooooo",
"oooooooooooooooooX.                                .Xooooooooooooooooo",
"oooooooooooooooooX.                                .Xooooooooooooooooo",
"ooooooooooooooooooX.                              .Xoooooooooooooooooo",
"oooooooooooooooooooX.                            .Xooooooooooooooooooo",
"ooooooooooooooooooooX.                          .Xoooooooooooooooooooo",
"oooooooooooooooooooooX.                        .Xooooooooooooooooooooo",
"ooooooooooooooooooooooX.                      .Xoooooooooooooooooooooo",
"oooooooooooooooooooooooX.                    .Xooooooooooooooooooooooo",
"ooooooooooooooooooooooooX.                  .Xoooooooooooooooooooooooo",
"oooooooooooooooooooooooooX.                .Xooooooooooooooooooooooooo",
"ooooooooooooooooooooooooooX.              .Xoooooooooooooooooooooooooo",
"oooooooooooooooooooooooooooX.            .Xooooooooooooooooooooooooooo",
"ooooooooooooooooooooooooooooX.          .Xoooooooooooooooooooooooooooo",
"oooooooooooooooooooooooooooooX.        .Xooooooooooooooooooooooooooooo",
"ooooooooooooooooooooooooooooooX.      .Xoooooooooooooooooooooooooooooo",
"oooooooooooooooooooooooooooooooX.    .Xooooooooooooooooooooooooooooooo",
"ooooooooooooooooooooooooooooooooX.  .Xoooooooooooooooooooooooooooooooo",
"oooooooooooooooooooooooooooooooooX..Xooooooooooooooooooooooooooooooooo",
"ooooooooooooooooooooooooooooooooooXXoooooooooooooooooooooooooooooooooo",
"oooooooooooooooooooooooooooooooooooooooooooooooooooooooooooooooooooooo",
"oooooooooooooooooooooooooooooooooooooooooooooooooooooooooooooooooooooo",
"oooooooooooooooooooooooooooooooooooooooooooooooooooooooooooooooooooooo",
"oooooooooooooooooooooooooooooooooooooooooooooooooooooooooooooooooooooo",
"oooooooooooooooooooooooooooooooooooooooooooooooooooooooooooooooooooooo",
"oooooooooooooooooooooooooooooooooooooooooooooooooooooooooooooooooooooo",
"oooooooooooooooooooooooooooooooooooooooooooooooooooooooooooooooooooooo",
"oooooooooooooooooooooooooooooooooooooooooooooooooooooooooooooooooooooo",
"oooooooooooooooooooooooooooooooooooooooooooooooooooooooooooooooooooooo",
"oooooooooooooooooooooooooooooooooooooooooooooooooooooooooooooooooooooo",
"oooooooooooooooooooooooooooooooooooooooooooooooooooooooooooooooooooooo",
"oooooooooooooooooooooooooooooooooooooooooooooooooooooooooooooooooooooo",
"oooooooooooooooooooooooooooooooooooooooooooooooooooooooooooooooooooooo",
"oooooooooooooooooooooooooooooooooooooooooooooooooooooooooooooooooooooo",
"oooooooooooooooooooooooooooooooooooooooooooooooooooooooooooooooooooooo",
"oooooooooooooooooooooooooooooooooooooooooooooooooooooooooooooooooooooo",
"oooooooooooooooooooooooooooooooooooooooooooooooooooooooooooooooooooooo"
};
