/* XPM */
static char *_7079_90e72b528aa3003c2763e5fcfad0411e39ef18dde30431c5806ce59123dc1637[] = {
/* columns rows colors chars-per-pixel */
"70 70 43 1 ",
"  c #00FFE9",
". c #01FFE9",
"X c #03FFE9",
"o c #09FFE9",
"O c #0DFEE9",
"+ c #12FEE9",
"@ c #13FEE9",
"# c #16FEE9",
"$ c #17FEE9",
"% c #1CFDE8",
"& c #1DFDE8",
"* c #23FDE7",
"= c #27FDE7",
"- c #2BFCE6",
"; c #2DFCE5",
": c #2CFCE6",
"> c #31FBE4",
", c #30FBE5",
"< c #39FAE2",
"1 c #38FBE3",
"2 c #4CF7DC",
"3 c #4BF8DD",
"4 c #59F5D7",
"5 c #51F7DA",
"6 c #7EECC3",
"7 c #7FECC3",
"8 c #7AEDC5",
"9 c #7BEDC5",
"0 c #73EFCA",
"q c #74EFC9",
"w c #6DF1CD",
"e c #6EF1CD",
"r c #61F3D3",
"t c #67F2D1",
"y c #66F3D1",
"u c #60F4D4",
"i c #41F9E0",
"p c #42F9E0",
"a c #8FE7B8",
"s c #85EBBF",
"d c #8AE9BB",
"f c #92E6B5",
"g c None",
/* pixels */
"gggggggggggggggggggggggggggggggggggggggggggggggggggggggggggggggggggggg",
"gggggggggggggggggggggggggggggggggggggggggggggggggggggggggggggggggggggg",
"gggggggggggggggggggggggggggggggggggggggggggggggggggggggggggggggggggggg",
"gggggggggggggggggggggggggggggggggggggggggggggggggggggggggggggggggggggg",
"gggggggggggggggggggggggggggggggggggggggggggggggggggggggggggggggggggggg",
"gggggggggggggggggggggggggggggggggggggggggggggggggggggggggggggggggggggg",
"gggggggggggggggggggggggggggggggggggggggggggggggggggggggggggggggggggggg",
"gggggggggggggggggggggggggggggggggggggggggggggggggggggggggggggggggggggg",
"gggggggggggggggggggggggggggggggggggggggggggggggggggggggggggggggggggggg",
"gggggggggggggggggggggggggggggggggggggggggggggggggggggggggggggggggggggg",
"gggggggggggggggggggggggggggggggggggggggggggggggggggggggggggggggggggggg",
"gggggggggggggggggggggggggggggggggggggggggggggggggggggggggggggggggggggg",
"gggggggggggggggggggggggggggggggggggggggggggggggggggggggggggggggggggggg",
"gggggggggggggggggggggggggggggggggggggggggggggggggggggggggggggggggggggg",
"gggggggggggggggggggggggggggggggggggggggggggggggggggggggggggggggggggggg",
"gggggggggggggggggggggggggggggggggggggggggggggggggggggggggggggggggggggg",
"gggggggggggggggggggggggggggggggggggggggggggggggggggggggggggggggggggggg",
"gggggggggggggggggggggggggggggggggggggggggggggggggggggggggggggggggggggg",
"gggggggggggggggggggggggggggggggggg32gggggggggggggggggggggggggggggggggg",
"ggggggggggggggggggggggggggggggggga  aggggggggggggggggggggggggggggggggg",
"ggggggggggggggggggggggggggggggggg-  :ggggggggggggggggggggggggggggggggg",
"gggggggggggggggggggggggggggggggg8    9gggggggggggggggggggggggggggggggg",
"gggggggggggggggggggggggggggggggg+    @gggggggggggggggggggggggggggggggg",
"gggggggggggggggggggggggggggggggu      rggggggggggggggggggggggggggggggg",
"gggggggggggggggggggggggggggggggX      Xggggggggggggggggggggggggggggggg",
"ggggggggggggggggggggggggggggggi        pgggggggggggggggggggggggggggggg",
"gggggggggggggggggggggggggggggd          dggggggggggggggggggggggggggggg",
"ggggggggggggggggggggggggggggg*          *ggggggggggggggggggggggggggggg",
"gggggggggggggggggggggggggggg0            qgggggggggggggggggggggggggggg",
"ggggggggggggggggggggggggggggO            Ogggggggggggggggggggggggggggg",
"ggggggggggggggggggggggggggg4              4ggggggggggggggggggggggggggg",
"ggggggggggggggggggggggggggg.              .ggggggggggggggggggggggggggg",
"gggggggggggggggggggggggggg1                <gggggggggggggggggggggggggg",
"gggggggggggggggggggggggggs                  sggggggggggggggggggggggggg",
"ggggggggggggggggggggggggg%                  &ggggggggggggggggggggggggg",
"ggggggggggggggggggggggggw                    egggggggggggggggggggggggg",
"ggggggggggggggggggggggggo                    ogggggggggggggggggggggggg",
"ggggggggggggggggggggggg5                      5ggggggggggggggggggggggg",
"ggggggggggggggggggggggf                        fgggggggggggggggggggggg",
"gggggggggggggggggggggg,                        >gggggggggggggggggggggg",
"ggggggggggggggggggggg6                          7ggggggggggggggggggggg",
"ggggggggggggggggggggg#                          $ggggggggggggggggggggg",
"ggggggggggggggggggggy                            tgggggggggggggggggggg",
"gggggggggggggggggggg;============================;gggggggggggggggggggg",
"gggggggggggggggggggggggggggggggggggggggggggggggggggggggggggggggggggggg",
"gggggggggggggggggggggggggggggggggggggggggggggggggggggggggggggggggggggg",
"gggggggggggggggggggggggggggggggggggggggggggggggggggggggggggggggggggggg",
"gggggggggggggggggggggggggggggggggggggggggggggggggggggggggggggggggggggg",
"gggggggggggggggggggggggggggggggggggggggggggggggggggggggggggggggggggggg",
"gggggggggggggggggggggggggggggggggggggggggggggggggggggggggggggggggggggg",
"gggggggggggggggggggggggggggggggggggggggggggggggggggggggggggggggggggggg",
"gggggggggggggggggggggggggggggggggggggggggggggggggggggggggggggggggggggg",
"gggggggggggggggggggggggggggggggggggggggggggggggggggggggggggggggggggggg",
"gggggggggggggggggggggggggggggggggggggggggggggggggggggggggggggggggggggg",
"gggggggggggggggggggggggggggggggggggggggggggggggggggggggggggggggggggggg",
"gggggggggggggggggggggggggggggggggggggggggggggggggggggggggggggggggggggg",
"gggggggggggggggggggggggggggggggggggggggggggggggggggggggggggggggggggggg",
"gggggggggggggggggggggggggggggggggggggggggggggggggggggggggggggggggggggg",
"gggggggggggggggggggggggggggggggggggggggggggggggggggggggggggggggggggggg",
"gggggggggggggggggggggggggggggggggggggggggggggggggggggggggggggggggggggg",
"gggggggggggggggggggggggggggggggggggggggggggggggggggggggggggggggggggggg",
"gggggggggggggggggggggggggggggggggggggggggggggggggggggggggggggggggggggg",
"gggggggggggggggggggggggggggggggggggggggggggggggggggggggggggggggggggggg",
"gggggggggggggggggggggggggggggggggggggggggggggggggggggggggggggggggggggg",
"gggggggggggggggggggggggggggggggggggggggggggggggggggggggggggggggggggggg",
"gggggggggggggggggggggggggggggggggggggggggggggggggggggggggggggggggggggg",
"gggggggggggggggggggggggggggggggggggggggggggggggggggggggggggggggggggggg",
"gggggggggggggggggggggggggggggggggggggggggggggggggggggggggggggggggggggg",
"gggggggggggggggggggggggggggggggggggggggggggggggggggggggggggggggggggggg",
"gggggggggggggggggggggggggggggggggggggggggggggggggggggggggggggggggggggg"
};
