/* XPM */
static char *_2116_31cb31c939a3d3dcf45f3d4a42533a9ebd8bee209ad93155e428ccf481014f0a[] = {
/* columns rows colors chars-per-pixel */
"70 70 24 1 ",
"  c #00FFE9",
". c #02FFE9",
"X c #04FFE9",
"o c #06FFE9",
"O c #0DFEE9",
"+ c #0EFEE9",
"@ c #0FFEE9",
"# c #21FDE7",
"$ c #22FDE7",
"% c #23FDE7",
"& c #2DFCE5",
"* c #2CFCE6",
"= c #30FBE5",
"- c #59F5D7",
"; c #5AF5D6",
": c #5DF4D5",
"> c #53F6D9",
", c #55F6D9",
"< c #7CEDC4",
"1 c #7CEDC5",
"2 c #41F9E0",
"3 c #95E5B3",
"4 c #95E6B3",
"5 c None",
/* pixels */
"5555555555555555555555555555555555555555555555555555555555555555555555",
"5555555555555555555555555555555555555555555555555555555555555555555555",
"5555555555555555555555555555555555555555555555555555555555555555555555",
"5555555555555555555555555555555555555555555555555555555555555555555555",
"5555555555555555555555555555555555555555555555555555555555555555555555",
"5555555555555555555555555555555555555555555555555555555555555555555555",
"5555555555555555555555555555555555555555555555555555555555555555555555",
"5555555555555555555555555555555555555555555555555555555555555555555555",
"5555555555555555555555555555555555555555555555555555555555555555555555",
"5555555555555555555555555555555555555555555555555555555555555555555555",
"5555555555555555555555555555555555555555555555555555555555555555555555",
"5555555555555555555555555555555555555555555555555555555555555555555555",
"5555555555555555555555555555555555555555555555555555555555555555555555",
"5555555555555555555555555555555555555555555555555555555555555555555555",
"5555555555555555555555555555555555555555555555555555555555555555555555",
"5555555555555555555555555555555555555555555555555555555555555555555555",
"5555555555555555555555555555555555555555555555555555555555555555555555",
"5555555555555555555555555555555555555555555555555555555555555555555555",
"5555555555555555555555555555555555555555555555555555555555555555555555",
"5555555555555555555555555555555555555555555555555555555555555555555555",
"5555555555555555555555555555555555555555555555555555555555555555555555",
"5555555555555555555555555555555555555555555555555555555555555555555555",
"5555555555555555555555555555555553113555555555555555555555555555555555",
"555555555555555555555555555555-*X    X*-555555555555555555555555555555",
"5555555555555555555555555555>.          .>5555555555555555555555555555",
"555555555555555555555555555#              $555555555555555555555555555",
"55555555555555555555555555+                @55555555555555555555555555",
"5555555555555555555555555#                  25555555555555555555555555",
"555555555555555555555555>                    <555555555555555555555555",
"555555555555555555555555.                    O555555555555555555555555",
"55555555555555555555555-                      :55555555555555555555555",
"55555555555555555555555*                      =55555555555555555555555",
"55555555555555555555555X                      o55555555555555555555555",
"55555555555555555555553                        55555555555555555555555",
"55555555555555555555551                        <5555555555555555555555",
"55555555555555555555551                        <5555555555555555555555",
"55555555555555555555553                        55555555555555555555555",
"55555555555555555555555X                      o55555555555555555555555",
"55555555555555555555555*                      =55555555555555555555555",
"55555555555555555555555-                      :55555555555555555555555",
"555555555555555555555555.                    O555555555555555555555555",
"555555555555555555555555>                    <555555555555555555555555",
"5555555555555555555555555$                  25555555555555555555555555",
"55555555555555555555555555+                @55555555555555555555555555",
"555555555555555555555555555$              %555555555555555555555555555",
"5555555555555555555555555555,.          .,5555555555555555555555555555",
"555555555555555555555555555555-&X    X&;555555555555555555555555555555",
"5555555555555555555555555555555554114555555555555555555555555555555555",
"5555555555555555555555555555555555555555555555555555555555555555555555",
"5555555555555555555555555555555555555555555555555555555555555555555555",
"5555555555555555555555555555555555555555555555555555555555555555555555",
"5555555555555555555555555555555555555555555555555555555555555555555555",
"5555555555555555555555555555555555555555555555555555555555555555555555",
"5555555555555555555555555555555555555555555555555555555555555555555555",
"5555555555555555555555555555555555555555555555555555555555555555555555",
"5555555555555555555555555555555555555555555555555555555555555555555555",
"5555555555555555555555555555555555555555555555555555555555555555555555",
"5555555555555555555555555555555555555555555555555555555555555555555555",
"5555555555555555555555555555555555555555555555555555555555555555555555",
"5555555555555555555555555555555555555555555555555555555555555555555555",
"5555555555555555555555555555555555555555555555555555555555555555555555",
"5555555555555555555555555555555555555555555555555555555555555555555555",
"5555555555555555555555555555555555555555555555555555555555555555555555",
"5555555555555555555555555555555555555555555555555555555555555555555555",
"5555555555555555555555555555555555555555555555555555555555555555555555",
"5555555555555555555555555555555555555555555555555555555555555555555555",
"5555555555555555555555555555555555555555555555555555555555555555555555",
"5555555555555555555555555555555555555555555555555555555555555555555555",
"5555555555555555555555555555555555555555555555555555555555555555555555",
"5555555555555555555555555555555555555555555555555555555555555555555555"
};
