/* XPM */
static char *_1663_cb3fab44292ebf2ec6c6681f1da0d9baef64035ec4cf1032fca7ad53cab898ac[] = {
/* columns rows colors chars-per-pixel */
"70 70 41 1 ",
"  c #FFD795",
". c #FFD796",
"X c #FFD999",
"o c #FFD99A",
"O c #FFDA9D",
"+ c #FFDA9E",
"@ c #FFDBA0",
"# c #FFDDA5",
"$ c #FFDFA9",
"% c #FFE1AE",
"& c #FFE1AF",
"* c #FFE2B1",
"= c #FFE2B2",
"- c #FFE4B7",
"; c #FFE6BC",
": c #FFE6BD",
"> c #FFE7C0",
", c #FFE8C1",
"< c #FFEAC7",
"1 c #FFEAC8",
"2 c #FFECCE",
"3 c #FFEDCF",
"4 c #FFEFD4",
"5 c PapayaWhip",
"6 c #FFF0D7",
"7 c #FFF0D8",
"8 c #FFF1D9",
"9 c #FFF2DC",
"0 c #FFF3DF",
"q c #FFF5E4",
"w c #FFF5E5",
"e c #FFF7E9",
"r c #FFF7EA",
"t c #FFF8EC",
"y c #FFF8ED",
"u c #FFFAF2",
"i c #FFFBF6",
"p c #FFFDFC",
"a c #FFFEFE",
"s c white",
"d c None",
/* pixels */
"dddddddddddddddddddddddddddddddddddddddddddddddddddddddddddddddddddddd",
"dddddddddddddddddddddddddddddddddddddddddddddddddddddddddddddddddddddd",
"dddddddddddddddddddddddddddddddddddddddddddddddddddddddddddddddddddddd",
"dddddddddddddddddddddddddddddddddddddddddddddddddddddddddddddddddddddd",
"dddddddddddddddddddddddddddddddddddddddddddddddddddddddddddddddddddddd",
"dddddddddddddddddddddddddddddddddddddddddddddddddddddddddddddddddddddd",
"dddddddddddddddddddddddddddddddddddddddddddddddddddddddddddddddddddddd",
"dddddddddddddddddddddddddddddddddddddddddddddddddddddddddddddddddddddd",
"dddddddddddddddddddddddddddddddddddddddddddddddddddddddddddddddddddddd",
"dddddddddddddddddddddddddddddddddddddddddddddddddddddddddddddddddddddd",
"dddddddddddddddddddddddddddddddddddddddddddddddddddddddddddddddddddddd",
"dddddddddddddddddddddddddddddddddddddddddddddddddddddddddddddddddddddd",
"dddddddddddddddddddddddddddddddddddddddddddddddddddddddddddddddddddddd",
"dddddddddddddddddddddddddddddddddddddddddddddddddddddddddddddddddddddd",
"dddddddddddddddddddddddddddddddddddddddddddddddddddddddddddddddddddddd",
"dddddddddddddddddddddddddddddddddddddddddddddddddddddddddddddddddddddd",
"dddddddddddddddddddddddddddddddddddddddddddddddddddddddddddddddddddddd",
"dddddddddddddddddddddddddddddddddddddddddddddddddddddddddddddddddddddd",
"dddddddddddddddddddddddddddddddddd,>dddddddddddddddddddddddddddddddddd",
"ddddddddddddddddddddddddddddddddddssdddddddddddddddddddddddddddddddddd",
"ddddddddddddddddddddddddddddddddd8ss7ddddddddddddddddddddddddddddddddd",
"dddddddddddddddddddddddddddddddd@ssss@dddddddddddddddddddddddddddddddd",
"ddddddddddddddddddddddddddddddddysssstdddddddddddddddddddddddddddddddd",
"ddddddddddddddddddddddddddddddd=ssssss*ddddddddddddddddddddddddddddddd",
"dddddddddddddddddddddddddddddddpsssssspddddddddddddddddddddddddddddddd",
"dddddddddddddddddddddddddddddd1ssssssss<dddddddddddddddddddddddddddddd",
"ddddddddddddddddddddddddddddd ssssssssss.ddddddddddddddddddddddddddddd",
"ddddddddddddddddddddddddddddd0ssssssssss0ddddddddddddddddddddddddddddd",
"dddddddddddddddddddddddddddd#ssssssssssss#dddddddddddddddddddddddddddd",
"ddddddddddddddddddddddddddddussssssssssssudddddddddddddddddddddddddddd",
"ddddddddddddddddddddddddddd-ssssssssssssss-ddddddddddddddddddddddddddd",
"dddddddddddddddddddddddddddassssssssssssssaddddddddddddddddddddddddddd",
"dddddddddddddddddddddddddd3ssssssssssssssss2dddddddddddddddddddddddddd",
"dddddddddddddddddddddddddXssssssssssssssssssoddddddddddddddddddddddddd",
"dddddddddddddddddddddddddwssssssssssssssssssqddddddddddddddddddddddddd",
"dddddddddddddddddddddddd$ssssssssssssssssssss$dddddddddddddddddddddddd",
"ddddddddddddddddddddddddissssssssssssssssssssidddddddddddddddddddddddd",
"ddddddddddddddddddddddd:ssssssssssssssssssssss;ddddddddddddddddddddddd",
"dddddddddddddddddddddddssssssssssssssssssssssssddddddddddddddddddddddd",
"dddddddddddddddddddddd5ssssssssssssssssssssssss4dddddddddddddddddddddd",
"ddddddddddddddddddddd+ssssssssssssssssssssssssssOddddddddddddddddddddd",
"dddddddddddddddddddddrsssssssssssssssssssssssssseddddddddddddddddddddd",
"dddddddddddddddddddd&ssssssssssssssssssssssssssss%dddddddddddddddddddd",
"dddddddddddddddddddd699999999999999999999999999996dddddddddddddddddddd",
"dddddddddddddddddddddddddddddddddddddddddddddddddddddddddddddddddddddd",
"dddddddddddddddddddddddddddddddddddddddddddddddddddddddddddddddddddddd",
"dddddddddddddddddddddddddddddddddddddddddddddddddddddddddddddddddddddd",
"dddddddddddddddddddddddddddddddddddddddddddddddddddddddddddddddddddddd",
"dddddddddddddddddddddddddddddddddddddddddddddddddddddddddddddddddddddd",
"dddddddddddddddddddddddddddddddddddddddddddddddddddddddddddddddddddddd",
"dddddddddddddddddddddddddddddddddddddddddddddddddddddddddddddddddddddd",
"dddddddddddddddddddddddddddddddddddddddddddddddddddddddddddddddddddddd",
"dddddddddddddddddddddddddddddddddddddddddddddddddddddddddddddddddddddd",
"dddddddddddddddddddddddddddddddddddddddddddddddddddddddddddddddddddddd",
"dddddddddddddddddddddddddddddddddddddddddddddddddddddddddddddddddddddd",
"dddddddddddddddddddddddddddddddddddddddddddddddddddddddddddddddddddddd",
"dddddddddddddddddddddddddddddddddddddddddddddddddddddddddddddddddddddd",
"dddddddddddddddddddddddddddddddddddddddddddddddddddddddddddddddddddddd",
"dddddddddddddddddddddddddddddddddddddddddddddddddddddddddddddddddddddd",
"dddddddddddddddddddddddddddddddddddddddddddddddddddddddddddddddddddddd",
"dddddddddddddddddddddddddddddddddddddddddddddddddddddddddddddddddddddd",
"dddddddddddddddddddddddddddddddddddddddddddddddddddddddddddddddddddddd",
"dddddddddddddddddddddddddddddddddddddddddddddddddddddddddddddddddddddd",
"dddddddddddddddddddddddddddddddddddddddddddddddddddddddddddddddddddddd",
"dddddddddddddddddddddddddddddddddddddddddddddddddddddddddddddddddddddd",
"dddddddddddddddddddddddddddddddddddddddddddddddddddddddddddddddddddddd",
"dddddddddddddddddddddddddddddddddddddddddddddddddddddddddddddddddddddd",
"dddddddddddddddddddddddddddddddddddddddddddddddddddddddddddddddddddddd",
"dddddddddddddddddddddddddddddddddddddddddddddddddddddddddddddddddddddd",
"dddddddddddddddddddddddddddddddddddddddddddddddddddddddddddddddddddddd"
};
