/* XPM */
static char *_6323_d3901afa42375e39281a75cce487ad986670cbdcd954263425273dc3fd086be2[] = {
/* columns rows colors chars-per-pixel */
"70 70 22 1 ",
"  c #FFDB9F",
". c #FFDBA0",
"X c #FFE3B4",
"o c #FFE4B6",
"O c #FFE4B7",
"+ c #FFE5BA",
"@ c #FFE5BB",
"# c #FFEAC8",
"$ c PapayaWhip",
"% c #FFF0D7",
"& c #FFF0D8",
"* c #FFF3DF",
"= c #FFF3E0",
"- c #FFF3E1",
"; c #FFF9F0",
": c #FFFAF1",
"> c #FFFAF2",
", c #FFFCF9",
"< c #FFFDFB",
"1 c #FFFEFD",
"2 c white",
"3 c None",
/* pixels */
"3333333333333333333333333333333333333333333333333333333333333333333333",
"3333333333333333333333333333333333333333333333333333333333333333333333",
"3333333333333333333333333333333333333333333333333333333333333333333333",
"3333333333333333333333333333333333333333333333333333333333333333333333",
"3333333333333333333333333333333333333333333333333333333333333333333333",
"3333333333333333333333333333333333333333333333333333333333333333333333",
"3333333333333333333333333333333333333333333333333333333333333333333333",
"3333333333333333333333333333333333333333333333333333333333333333333333",
"3333333333333333333333333333333333333333333333333333333333333333333333",
"3333333333333333333333333333333333333333333333333333333333333333333333",
"3333333333333333333333333333333333333333333333333333333333333333333333",
"3333333333333333333333333333333333333333333333333333333333333333333333",
"3333333333333333333333333333333333333333333333333333333333333333333333",
"3333333333333333333333333333333333333333333333333333333333333333333333",
"3333333333333333333333333333333333333333333333333333333333333333333333",
"3333333333333333333333333333333333333333333333333333333333333333333333",
"3333333333333333333333333333333333333333333333333333333333333333333333",
"3333333333333333333333333333333333333333333333333333333333333333333333",
"3333333333333333333333333333333333333333333333333333333333333333333333",
"3333333333333333333333333333333333333333333333333333333333333333333333",
"3333333333333333333333333333333333333333333333333333333333333333333333",
"3333333333333333333333333333333333333333333333333333333333333333333333",
"3333333333333333333333333333333333..3333333333333333333333333333333333",
"333333333333333333333333333333O&<2222<&O333333333333333333333333333333",
"3333333333333333333333333333@122222222221@3333333333333333333333333333",
"333333333333333333333333333-22222222222222=333333333333333333333333333",
"33333333333333333333333333:2222222222222222;33333333333333333333333333",
"3333333333333333333333333-222222222222222222#3333333333333333333333333",
"333333333333333333333333@22222222222222222222 333333333333333333333333",
"333333333333333333333333122222222222222222222>333333333333333333333333",
"33333333333333333333333O2222222222222222222222X33333333333333333333333",
"33333333333333333333333&2222222222222222222222$33333333333333333333333",
"33333333333333333333333<2222222222222222222222,33333333333333333333333",
"3333333333333333333333322222222222222222222222233333333333333333333333",
"3333333333333333333333.222222222222222222222222 3333333333333333333333",
"3333333333333333333333.222222222222222222222222 3333333333333333333333",
"3333333333333333333333322222222222222222222222233333333333333333333333",
"33333333333333333333333<2222222222222222222222,33333333333333333333333",
"33333333333333333333333&2222222222222222222222$33333333333333333333333",
"33333333333333333333333O2222222222222222222222X33333333333333333333333",
"333333333333333333333333122222222222222222222>333333333333333333333333",
"333333333333333333333333@22222222222222222222 333333333333333333333333",
"3333333333333333333333333=222222222222222222#3333333333333333333333333",
"33333333333333333333333333:2222222222222222;33333333333333333333333333",
"333333333333333333333333333=22222222222222*333333333333333333333333333",
"3333333333333333333333333333+122222222221+3333333333333333333333333333",
"333333333333333333333333333333O%<2222<%o333333333333333333333333333333",
"3333333333333333333333333333333333..3333333333333333333333333333333333",
"3333333333333333333333333333333333333333333333333333333333333333333333",
"3333333333333333333333333333333333333333333333333333333333333333333333",
"3333333333333333333333333333333333333333333333333333333333333333333333",
"3333333333333333333333333333333333333333333333333333333333333333333333",
"3333333333333333333333333333333333333333333333333333333333333333333333",
"3333333333333333333333333333333333333333333333333333333333333333333333",
"3333333333333333333333333333333333333333333333333333333333333333333333",
"3333333333333333333333333333333333333333333333333333333333333333333333",
"3333333333333333333333333333333333333333333333333333333333333333333333",
"3333333333333333333333333333333333333333333333333333333333333333333333",
"3333333333333333333333333333333333333333333333333333333333333333333333",
"3333333333333333333333333333333333333333333333333333333333333333333333",
"3333333333333333333333333333333333333333333333333333333333333333333333",
"3333333333333333333333333333333333333333333333333333333333333333333333",
"3333333333333333333333333333333333333333333333333333333333333333333333",
"3333333333333333333333333333333333333333333333333333333333333333333333",
"3333333333333333333333333333333333333333333333333333333333333333333333",
"3333333333333333333333333333333333333333333333333333333333333333333333",
"3333333333333333333333333333333333333333333333333333333333333333333333",
"3333333333333333333333333333333333333333333333333333333333333333333333",
"3333333333333333333333333333333333333333333333333333333333333333333333",
"3333333333333333333333333333333333333333333333333333333333333333333333"
};
