/* XPM */
static char *_1106_7723b267fa83746feb6cd749d26f4c030e18990145c2a2d93085ab9c7eae4e93[] = {
/* columns rows colors chars-per-pixel */
"70 70 2 1 ",
"  c #FFA000",
". c None",
/* pixels */
"......................................................................",
"......................................................................",
"......................................................................",
"......................................................................",
"......................................................................",
"......................................................................",
"......................................................................",
"......................................................................",
"......................................................................",
"......................................................................",
"......................................................................",
"......................................................................",
"......................................................................",
"......................................................................",
"......................................................................",
"......................................................................",
"......................................................................",
"......................................................................",
"......................................................................",
"......................................................................",
"......................................................................",
"......................................................................",
".......................                        .......................",
"......................                          ......................",
"......................                          ......................",
"......................                          ......................",
"......................                          ......................",
"......................                          ......................",
"......................                          ......................",
"......................                          ......................",
"......................                          ......................",
"......................                          ......................",
"......................                          ......................",
"......................                          ......................",
"......................                          ......................",
"......................                          ......................",
"......................                          ......................",
"......................                          ......................",
"......................                          ......................",
"......................                          ......................",
"......................                          ......................",
"......................                          ......................",
"......................                          ......................",
"......................                          ......................",
"......................                          ......................",
"......................                          ......................",
"......................                          ......................",
".......................                        .......................",
"......................................................................",
"......................................................................",
"......................................................................",
"......................................................................",
"......................................................................",
"......................................................................",
"......................................................................",
"......................................................................",
"......................................................................",
"......................................................................",
"......................................................................",
"......................................................................",
"......................................................................",
"......................................................................",
"......................................................................",
"......................................................................",
"......................................................................",
"......................................................................",
"......................................................................",
"......................................................................",
"......................................................................",
"......................................................................"
};
