/* XPM */
static char *_5504_329d7b5a69d9fd2152344ab8ac3ef0a4c9848703de102fc1dea3e60e9dd093bd[] = {
/* columns rows colors chars-per-pixel */
"70 70 94 2 ",
"   c black",
".  c #010100",
"X  c #020100",
"o  c #030200",
"O  c #040300",
"+  c #090600",
"@  c #0D0801",
"#  c #0F0900",
"$  c #100A00",
"%  c #120B01",
"&  c #130C01",
"*  c #150D00",
"=  c #160D02",
"-  c #170E02",
";  c #1C1103",
":  c #1D1103",
">  c #201400",
",  c #231505",
"<  c #271806",
"1  c #281900",
"2  c #2B1A07",
"3  c #2C1B08",
"4  c #2D1B08",
"5  c #2E1C08",
"6  c #301E00",
"7  c #311F00",
"8  c #301E0A",
"9  c #311E0A",
"0  c #38230D",
"q  c #39230D",
"w  c #402800",
"e  c #412900",
"r  c #4A2E00",
"t  c #553500",
"y  c #563600",
"u  c #412912",
"i  c #422912",
"p  c #4B2F18",
"a  c #4B3018",
"s  c #50341C",
"d  c #51351C",
"f  c #593B23",
"g  c #674100",
"h  c #684100",
"j  c #724800",
"k  c #734800",
"l  c #604129",
"z  c #60412A",
"x  c #65462F",
"c  c #66462F",
"v  c #6D4D36",
"b  c #6D4E37",
"n  c #73543E",
"m  c #74553E",
"M  c #795B45",
"N  c #7A5B46",
"B  c #7E604B",
"V  c #7E614B",
"C  c #8F5A00",
"Z  c #905A00",
"A  c #9A6100",
"S  c #9B6100",
"D  c #AC6C00",
"F  c #AD6D00",
"G  c #B67200",
"H  c #B77300",
"J  c #C17900",
"K  c #C27A00",
"L  c #836752",
"P  c #846852",
"I  c #896D58",
"U  c #8A6F59",
"Y  c #8E745E",
"T  c #8E755F",
"R  c #917862",
"E  c #927964",
"W  c #957E67",
"Q  c #D08300",
"!  c #D18300",
"~  c #D68600",
"^  c #D88800",
"/  c #D98800",
"(  c #EA9300",
")  c #EF9600",
"_  c #F09700",
"`  c #FA9D00",
"'  c #FC9E00",
"]  c #FE9F00",
"[  c #FFA000",
"{  c #99826C",
"}  c #9C876F",
"|  c #9E8971",
" . c #9F8A71",
".. c None",
/* pixels */
"............................................................................................................................................",
"............................................................................................................................................",
"............................................................................................................................................",
"............................................................................................................................................",
"............................................................................................................................................",
"............................................................................................................................................",
"............................................................................................................................................",
"............................................................................................................................................",
"............................................................................................................................................",
"............................................................................................................................................",
"............................................................................................................................................",
"............................................................................................................................................",
"............................................................................................................................................",
"............................................................................................................................................",
"............................................................................................................................................",
"............................................................................................................................................",
"............................................................................................................................................",
"....................................................................} } ....................................................................",
"....................................................................p a ....................................................................",
"..................................................................Y     T ..................................................................",
"..................................................................2     3 ..................................................................",
"................................................................M         N ................................................................",
"................................................................%         & ................................................................",
"..............................................................l     > >     z ..............................................................",
"............................................................{ o     F D     o { ............................................................",
"............................................................u     e ] ] w     i ............................................................",
"..........................................................I     X ! [ [ Q X     U ..........................................................",
"..........................................................,     h [ [ [ [ g     , ..........................................................",
"........................................................n     $ ( [ [ [ [ ( #     m ........................................................",
"........................................................@     Z [ [ [ [ [ [ C     @ ........................................................",
"......................................................f     1 ` [ [ [ [ [ [ ` 1     f ......................................................",
"....................................................W .     H [ [ [ [ [ [ [ [ G     . W ....................................................",
"....................................................0     r [ [ [ [ [ [ [ [ [ [ r     q ....................................................",
"..................................................L     O / [ [ [ [ [ [ [ [ [ [ ^ O     P ..................................................",
"..................................................;     k [ [ [ [ [ [ [ [ [ [ [ [ j     : ..................................................",
"................................................v     * _ [ [ [ [ [ [ [ [ [ [ [ [ ) *     b ................................................",
"..............................................| +     S [ [ [ [ [ [ [ [ [ [ [ [ [ [ A     +  ...............................................",
"..............................................s     7 ' [ [ [ [ [ [ [ [ [ [ [ [ [ [ ' 6     d ..............................................",
"............................................R       K [ [ [ [ [ [ [ [ [ [ [ [ [ [ [ [ J       E ............................................",
"............................................8     y [ [ [ [ [ [ [ [ [ [ [ [ [ [ [ [ [ [ t     9 ............................................",
"..........................................B     . H ~ ~ ~ ~ ~ ~ ~ ~ ~ ~ ~ ~ ~ ~ ~ ~ ~ ~ H .     V ..........................................",
"..........................................=                                                     - ..........................................",
"........................................x                                                         c ........................................",
"........................................4 < < < < < < < < < < < < < < < < < < < < < < < < < < < < 5 ........................................",
"............................................................................................................................................",
"............................................................................................................................................",
"............................................................................................................................................",
"............................................................................................................................................",
"............................................................................................................................................",
"............................................................................................................................................",
"............................................................................................................................................",
"............................................................................................................................................",
"............................................................................................................................................",
"............................................................................................................................................",
"............................................................................................................................................",
"............................................................................................................................................",
"............................................................................................................................................",
"............................................................................................................................................",
"............................................................................................................................................",
"............................................................................................................................................",
"............................................................................................................................................",
"............................................................................................................................................",
"............................................................................................................................................",
"............................................................................................................................................",
"............................................................................................................................................",
"............................................................................................................................................",
"............................................................................................................................................",
"............................................................................................................................................",
"............................................................................................................................................",
"............................................................................................................................................"
};
