/* XPM */
static char *_1267_76ca4d4939d1882f5cfd52326dc74d8b91d562d9e949accb92dc118844aeb204[] = {
/* columns rows colors chars-per-pixel */
"70 70 2 1 ",
"  c #FFA000",
". c None",
/* pixels */
"......................................................................",
"......................................................................",
"......................................................................",
"......................................................................",
"......................................................................",
"......................................................................",
"......................................................................",
"......................................................................",
"......................................................................",
"......................................................................",
"......................................................................",
"......................................................................",
"......................................................................",
"......................................................................",
"......................................................................",
"......................................................................",
"......................................................................",
"......................................................................",
"......................................................................",
"......................................................................",
"......................................................................",
"......................................................................",
"......................................................................",
"..............................          ..............................",
"............................              ............................",
"...........................                ...........................",
"..........................                  ..........................",
".........................                    .........................",
"........................                     .........................",
"........................                      ........................",
".......................                        .......................",
".......................                        .......................",
".......................                        .......................",
".......................                        .......................",
".......................                        .......................",
".......................                        .......................",
".......................                        .......................",
".......................                        .......................",
".......................                        .......................",
".......................                        .......................",
"........................                      ........................",
"........................                     .........................",
".........................                    .........................",
"..........................                  ..........................",
"...........................                ...........................",
"............................              ............................",
"..............................          ..............................",
"......................................................................",
"......................................................................",
"......................................................................",
"......................................................................",
"......................................................................",
"......................................................................",
"......................................................................",
"......................................................................",
"......................................................................",
"......................................................................",
"......................................................................",
"......................................................................",
"......................................................................",
"......................................................................",
"......................................................................",
"......................................................................",
"......................................................................",
"......................................................................",
"......................................................................",
"......................................................................",
"......................................................................",
"......................................................................",
"......................................................................"
};
