/* XPM */
static char *_584_ae6f54ead070e9ab194c9c38e274c666c4e84030e75cfce278f97f873ea5c6bd[] = {
/* columns rows colors chars-per-pixel */
"70 70 6 1 ",
"  c black",
". c #3F2800",
"X c #553500",
"o c #7F5000",
"O c #FFA000",
"+ c None",
/* pixels */
"++++++++++++++++++++++++++++++++++++++++++++++++++++++++++++++++++++++",
"++++++++++++++++++++++++++++++++++++++++++++++++++++++++++++++++++++++",
"++++++++++++++++++++++++++++++++++++++++++++++++++++++++++++++++++++++",
"++++++++++++++++++++++++++++++++++++++++++++++++++++++++++++++++++++++",
"++++++++++++++++++++++++++++++++++++++++++++++++++++++++++++++++++++++",
"++++++++++++++++++++++++++++++++++++++++++++++++++++++++++++++++++++++",
"++++++++++++++++++++++++++++++++++++++++++++++++++++++++++++++++++++++",
"++++++++++++++++++++++++++++++++++++++++++++++++++++++++++++++++++++++",
"++++++++++++++++++++++++++++++++++++++++++++++++++++++++++++++++++++++",
"++++++++++++++++++++++++++++++++++++++++++++++++++++++++++++++++++++++",
"++++++++++++++++++++++++++++++++++++++++++++++++++++++++++++++++++++++",
"++++++++++++++++++++++++++++++++++++++++++++++++++++++++++++++++++++++",
"++++++++++++++++++++++++++++++++++++++++++++++++++++++++++++++++++++++",
"++++++++++++++++++++++++++++++++++++++++++++++++++++++++++++++++++++++",
"++++++++++++++++++++++++++++++++++++++++++++++++++++++++++++++++++++++",
"++++++++++++++++++++++++++++++++++++++++++++++++++++++++++++++++++++++",
"++++++++++++++++++++++++++++++++++++++++++++++++++++++++++++++++++++++",
"++++++++++++++++++++++++++++++++++++++++++++++++++++++++++++++++++++++",
"++++++++++++++++++++++++++++++++++++++++++++++++++++++++++++++++++++++",
"++++++++++++++++++++++++++++++++++++++++++++++++++++++++++++++++++++++",
"++++++++++++++++++++++++++++++++++++++++++++++++++++++++++++++++++++++",
"++++++++++++++++++++++++++++++++++++++++++++++++++++++++++++++++++++++",
"+++++++++++++++++++++++XXXXXXXXXXXXXXXXXXXXXXXX+++++++++++++++++++++++",
"++++++++++++++++++++++X                        X++++++++++++++++++++++",
"++++++++++++++++++++++X                        X++++++++++++++++++++++",
"++++++++++++++++++++++X  .oooooooooooooooooo.  X++++++++++++++++++++++",
"++++++++++++++++++++++X  oOOOOOOOOOOOOOOOOOOo  X++++++++++++++++++++++",
"++++++++++++++++++++++X  oOOOOOOOOOOOOOOOOOOo  X++++++++++++++++++++++",
"++++++++++++++++++++++X  oOOOOOOOOOOOOOOOOOOo  X++++++++++++++++++++++",
"++++++++++++++++++++++X  oOOOOOOOOOOOOOOOOOOo  X++++++++++++++++++++++",
"++++++++++++++++++++++X  oOOOOOOOOOOOOOOOOOOo  X++++++++++++++++++++++",
"++++++++++++++++++++++X  oOOOOOOOOOOOOOOOOOOo  X++++++++++++++++++++++",
"++++++++++++++++++++++X  oOOOOOOOOOOOOOOOOOOo  X++++++++++++++++++++++",
"++++++++++++++++++++++X  oOOOOOOOOOOOOOOOOOOo  X++++++++++++++++++++++",
"++++++++++++++++++++++X  oOOOOOOOOOOOOOOOOOOo  X++++++++++++++++++++++",
"++++++++++++++++++++++X  oOOOOOOOOOOOOOOOOOOo  X++++++++++++++++++++++",
"++++++++++++++++++++++X  oOOOOOOOOOOOOOOOOOOo  X++++++++++++++++++++++",
"++++++++++++++++++++++X  oOOOOOOOOOOOOOOOOOOo  X++++++++++++++++++++++",
"++++++++++++++++++++++X  oOOOOOOOOOOOOOOOOOOo  X++++++++++++++++++++++",
"++++++++++++++++++++++X  oOOOOOOOOOOOOOOOOOOo  X++++++++++++++++++++++",
"++++++++++++++++++++++X  oOOOOOOOOOOOOOOOOOOo  X++++++++++++++++++++++",
"++++++++++++++++++++++X  oOOOOOOOOOOOOOOOOOOo  X++++++++++++++++++++++",
"++++++++++++++++++++++X  oOOOOOOOOOOOOOOOOOOo  X++++++++++++++++++++++",
"++++++++++++++++++++++X  oOOOOOOOOOOOOOOOOOOo  X++++++++++++++++++++++",
"++++++++++++++++++++++X  .oooooooooooooooooo.  X++++++++++++++++++++++",
"++++++++++++++++++++++X                        X++++++++++++++++++++++",
"++++++++++++++++++++++X                        X++++++++++++++++++++++",
"+++++++++++++++++++++++XXXXXXXXXXXXXXXXXXXXXXXX+++++++++++++++++++++++",
"++++++++++++++++++++++++++++++++++++++++++++++++++++++++++++++++++++++",
"++++++++++++++++++++++++++++++++++++++++++++++++++++++++++++++++++++++",
"++++++++++++++++++++++++++++++++++++++++++++++++++++++++++++++++++++++",
"++++++++++++++++++++++++++++++++++++++++++++++++++++++++++++++++++++++",
"++++++++++++++++++++++++++++++++++++++++++++++++++++++++++++++++++++++",
"++++++++++++++++++++++++++++++++++++++++++++++++++++++++++++++++++++++",
"++++++++++++++++++++++++++++++++++++++++++++++++++++++++++++++++++++++",
"++++++++++++++++++++++++++++++++++++++++++++++++++++++++++++++++++++++",
"++++++++++++++++++++++++++++++++++++++++++++++++++++++++++++++++++++++",
"++++++++++++++++++++++++++++++++++++++++++++++++++++++++++++++++++++++",
"++++++++++++++++++++++++++++++++++++++++++++++++++++++++++++++++++++++",
"++++++++++++++++++++++++++++++++++++++++++++++++++++++++++++++++++++++",
"++++++++++++++++++++++++++++++++++++++++++++++++++++++++++++++++++++++",
"++++++++++++++++++++++++++++++++++++++++++++++++++++++++++++++++++++++",
"++++++++++++++++++++++++++++++++++++++++++++++++++++++++++++++++++++++",
"++++++++++++++++++++++++++++++++++++++++++++++++++++++++++++++++++++++",
"++++++++++++++++++++++++++++++++++++++++++++++++++++++++++++++++++++++",
"++++++++++++++++++++++++++++++++++++++++++++++++++++++++++++++++++++++",
"++++++++++++++++++++++++++++++++++++++++++++++++++++++++++++++++++++++",
"++++++++++++++++++++++++++++++++++++++++++++++++++++++++++++++++++++++",
"++++++++++++++++++++++++++++++++++++++++++++++++++++++++++++++++++++++",
"++++++++++++++++++++++++++++++++++++++++++++++++++++++++++++++++++++++"
};
