/* XPM */
static char *_5650_46df753f03ac5c83e6b19914e500277d4d781e54e73da56c22cbce4951a913e8[] = {
/* columns rows colors chars-per-pixel */
"70 70 2 1 ",
"  c #FFA000",
". c None",
/* pixels */
"......................................................................",
"......................................................................",
"......................................................................",
"......................................................................",
"......................................................................",
"......................................................................",
"......................................................................",
"......................................................................",
"......................................................................",
"......................................................................",
"......................................................................",
"......................................................................",
"......................................................................",
"......................................................................",
"......................................................................",
"......................................................................",
"......................................................................",
"......................................................................",
"..................................  ..................................",
".................................    .................................",
"................................      ................................",
"...............................        ...............................",
"..............................          ..............................",
".............................            .............................",
"............................              ............................",
"...........................                ...........................",
"..........................                  ..........................",
".........................                    .........................",
"........................                      ........................",
".......................                        .......................",
"......................                          ......................",
".....................                            .....................",
"....................                              ....................",
"...................                                ...................",
"..................                                  ..................",
"..................                                  ..................",
"...................                                ...................",
"....................                              ....................",
".....................                            .....................",
"......................                          ......................",
".......................                        .......................",
"........................                      ........................",
".........................                    .........................",
"..........................                  ..........................",
"...........................                ...........................",
"............................              ............................",
".............................            .............................",
"..............................          ..............................",
"...............................        ...............................",
"................................      ................................",
".................................    .................................",
"..................................  ..................................",
"......................................................................",
"......................................................................",
"......................................................................",
"......................................................................",
"......................................................................",
"......................................................................",
"......................................................................",
"......................................................................",
"......................................................................",
"......................................................................",
"......................................................................",
"......................................................................",
"......................................................................",
"......................................................................",
"......................................................................",
"......................................................................",
"......................................................................",
"......................................................................"
};
