/* XPM */
static char *_6977_1da2c380532f6758c36209a375e397498e4c83b6a0ec48c500c0271b6994cac9[] = {
/* columns rows colors chars-per-pixel */
"70 70 6 1 ",
"  c black",
". c #0C0700",
"X c #170E00",
"o c #D58600",
"O c #FFA000",
"+ c None",
/* pixels */
"++++++++++++++++++++++++++++++++++++++++++++++++++++++++++++++++++++++",
"++++++++++++++++++++++++++++++++++++++++++++++++++++++++++++++++++++++",
"++++++++++++++++++++++++++++++++++++++++++++++++++++++++++++++++++++++",
"++++++++++++++++++++++++++++++++++++++++++++++++++++++++++++++++++++++",
"++++++++++++++++++++++++++++++++++++++++++++++++++++++++++++++++++++++",
"++++++++++++++++++++++++++++++++++++++++++++++++++++++++++++++++++++++",
"++++++++++++++++++++++++++++++++++++++++++++++++++++++++++++++++++++++",
"++++++++++++++++++++++++++++++++++++++++++++++++++++++++++++++++++++++",
"++++++++++++++++++++++++++++++++++++++++++++++++++++++++++++++++++++++",
"++++++++++++++++++++++++++++++++++++++++++++++++++++++++++++++++++++++",
"++++++++++++++++++++++++++++++++++++++++++++++++++++++++++++++++++++++",
"++++++++++++++++++++++++++++++++++++++++++++++++++++++++++++++++++++++",
"++++++++++++++++++++++++++++++++++++++++++++++++++++++++++++++++++++++",
"++++++++++++++++++++++++++++++++++++++++++++++++++++++++++++++++++++++",
"++++++++++++++++++++++++++++++++++++++++++++++++++++++++++++++++++++++",
"++++++++++++++++++++++++++++++++++++++++++++++++++++++++++++++++++++++",
"++++++++++++++++++++++++++++++++++++++++++++++++++++++++++++++++++++++",
"++++++++++++++++++++++++++++++++++++++++++++++++++++++++++++++++++++++",
"++++++++++++++++++++++++++++++++++..++++++++++++++++++++++++++++++++++",
"+++++++++++++++++++++++++++++++++.  .+++++++++++++++++++++++++++++++++",
"++++++++++++++++++++++++++++++++.    .++++++++++++++++++++++++++++++++",
"+++++++++++++++++++++++++++++++.  XX  .+++++++++++++++++++++++++++++++",
"++++++++++++++++++++++++++++++.  XooX  .++++++++++++++++++++++++++++++",
"+++++++++++++++++++++++++++++.  XoOOoX  .+++++++++++++++++++++++++++++",
"++++++++++++++++++++++++++++.  XoOOOOoX  .++++++++++++++++++++++++++++",
"+++++++++++++++++++++++++++.  XoOOOOOOoX  .+++++++++++++++++++++++++++",
"++++++++++++++++++++++++++.  XoOOOOOOOOoX  .++++++++++++++++++++++++++",
"+++++++++++++++++++++++++.  XoOOOOOOOOOOoX  .+++++++++++++++++++++++++",
"++++++++++++++++++++++++.  XoOOOOOOOOOOOOoX  .++++++++++++++++++++++++",
"+++++++++++++++++++++++.  XoOOOOOOOOOOOOOOoX  .+++++++++++++++++++++++",
"++++++++++++++++++++++.  XoOOOOOOOOOOOOOOOOoX  .++++++++++++++++++++++",
"+++++++++++++++++++++.  XoOOOOOOOOOOOOOOOOOOoX  .+++++++++++++++++++++",
"++++++++++++++++++++.  XoOOOOOOOOOOOOOOOOOOOOoX  .++++++++++++++++++++",
"+++++++++++++++++++.  XoOOOOOOOOOOOOOOOOOOOOOOoX  .+++++++++++++++++++",
"++++++++++++++++++.  XoOOOOOOOOOOOOOOOOOOOOOOOOoX  .++++++++++++++++++",
"++++++++++++++++++.  XoOOOOOOOOOOOOOOOOOOOOOOOOoX  .++++++++++++++++++",
"+++++++++++++++++++.  XoOOOOOOOOOOOOOOOOOOOOOOoX  .+++++++++++++++++++",
"++++++++++++++++++++.  XoOOOOOOOOOOOOOOOOOOOOoX  .++++++++++++++++++++",
"+++++++++++++++++++++.  XoOOOOOOOOOOOOOOOOOOoX  .+++++++++++++++++++++",
"++++++++++++++++++++++.  XoOOOOOOOOOOOOOOOOoX  .++++++++++++++++++++++",
"+++++++++++++++++++++++.  XoOOOOOOOOOOOOOOoX  .+++++++++++++++++++++++",
"++++++++++++++++++++++++.  XoOOOOOOOOOOOOoX  .++++++++++++++++++++++++",
"+++++++++++++++++++++++++.  XoOOOOOOOOOOoX  .+++++++++++++++++++++++++",
"++++++++++++++++++++++++++.  XoOOOOOOOOoX  .++++++++++++++++++++++++++",
"+++++++++++++++++++++++++++.  XoOOOOOOoX  .+++++++++++++++++++++++++++",
"++++++++++++++++++++++++++++.  XoOOOOoX  .++++++++++++++++++++++++++++",
"+++++++++++++++++++++++++++++.  XoOOoX  .+++++++++++++++++++++++++++++",
"++++++++++++++++++++++++++++++.  XooX  .++++++++++++++++++++++++++++++",
"+++++++++++++++++++++++++++++++.  XX  .+++++++++++++++++++++++++++++++",
"++++++++++++++++++++++++++++++++.    .++++++++++++++++++++++++++++++++",
"+++++++++++++++++++++++++++++++++.  .+++++++++++++++++++++++++++++++++",
"++++++++++++++++++++++++++++++++++..++++++++++++++++++++++++++++++++++",
"++++++++++++++++++++++++++++++++++++++++++++++++++++++++++++++++++++++",
"++++++++++++++++++++++++++++++++++++++++++++++++++++++++++++++++++++++",
"++++++++++++++++++++++++++++++++++++++++++++++++++++++++++++++++++++++",
"++++++++++++++++++++++++++++++++++++++++++++++++++++++++++++++++++++++",
"++++++++++++++++++++++++++++++++++++++++++++++++++++++++++++++++++++++",
"++++++++++++++++++++++++++++++++++++++++++++++++++++++++++++++++++++++",
"++++++++++++++++++++++++++++++++++++++++++++++++++++++++++++++++++++++",
"++++++++++++++++++++++++++++++++++++++++++++++++++++++++++++++++++++++",
"++++++++++++++++++++++++++++++++++++++++++++++++++++++++++++++++++++++",
"++++++++++++++++++++++++++++++++++++++++++++++++++++++++++++++++++++++",
"++++++++++++++++++++++++++++++++++++++++++++++++++++++++++++++++++++++",
"++++++++++++++++++++++++++++++++++++++++++++++++++++++++++++++++++++++",
"++++++++++++++++++++++++++++++++++++++++++++++++++++++++++++++++++++++",
"++++++++++++++++++++++++++++++++++++++++++++++++++++++++++++++++++++++",
"++++++++++++++++++++++++++++++++++++++++++++++++++++++++++++++++++++++",
"++++++++++++++++++++++++++++++++++++++++++++++++++++++++++++++++++++++",
"++++++++++++++++++++++++++++++++++++++++++++++++++++++++++++++++++++++",
"++++++++++++++++++++++++++++++++++++++++++++++++++++++++++++++++++++++"
};
